<svg xmlns="http://www.w3.org/2000/svg" width="18.667" height="24" viewBox="0 0 18.667 24"><defs><style>.a{fill:#d5d6df;}</style></defs><g transform="translate(541.856 -908.277)"><path class="a" d="M-478.189,918.944a5.333,5.333,0,0,0,5.333-5.333,5.333,5.333,0,0,0-5.333-5.333,5.333,5.333,0,0,0-5.333,5.333A5.333,5.333,0,0,0-478.189,918.944Z" transform="translate(-54.334)"/><path class="a" d="M-524.523,1113.388a1.333,1.333,0,0,0,1.333-1.333,9.333,9.333,0,0,0-9.333-9.333,9.333,9.333,0,0,0-9.333,9.333,1.333,1.333,0,0,0,1.333,1.333Z" transform="translate(0 -181.111)"/></g></svg>