<svg xmlns="http://www.w3.org/2000/svg" xmlns:xlink="http://www.w3.org/1999/xlink" width="40" height="40" viewBox="0 0 40 40"><defs><style>.a{fill:#fff1de;}.b{fill:#43de90;}.c{clip-path:url(#a);}.d{fill:#fff;}.d,.e{fill-rule:evenodd;}</style><clipPath id="a"><circle class="a" cx="20" cy="20" r="20" transform="translate(1856 102)"/></clipPath></defs><g transform="translate(-1821 -53)"><circle class="b" cx="20" cy="20" r="20" transform="translate(1821 53)"/><g class="c" transform="translate(-35 -49)"><g transform="translate(1855.422 99.323)"><g transform="translate(5.578 8.37)"><g transform="translate(0 0)"><g transform="translate(0 0)"><g transform="translate(0 13.375)"><path class="d" d="M3.655,27.142c2.333.065,4.536.137,6.864,0,3.725-.231,14.658.185,17.061,0,.181-.014.8.185.818,0,.106-1.288.174-14.323-.14-15.22S26.4,6.714,24.422,4.7c-.55-.543-1.388-.753-1.851-1.381-.4-.684-.368-1.086-.762-1.446-.171-.156-.574-.22-.874-.436-.3-.3-.016-.959-.14-1.376A2.611,2.611,0,0,0,18.576-1.8,3.243,3.243,0,0,0,14.961-.7c-.254.417-.119.924-.432,1.593.022.505-.567.627-.92.827l-.7.708C10.753,3.641,8.217,4.3,6.328,5.926a15.276,15.276,0,0,0-3.916,5.719,13.127,13.127,0,0,0-.257,1.836,39.123,39.123,0,0,1-1.079,5.284C.6,20.968.154,23.306.8,25.529A7.177,7.177,0,0,0,3.655,27.142Z" transform="translate(-0.312 1.932)"/><path class="e" d="M14.847-.606a.054.054,0,0,1,.105.014,7.645,7.645,0,0,1-.089,1.746c-.035.276-.055.562-.109.834-.007.029-.013.058-.019.087a.559.559,0,0,0,.094.09l.108.1.215.209,1.265,1.226.619.6a7.689,7.689,0,0,1,.64.632.319.319,0,0,1,.024.411.338.338,0,0,1-.227.124.524.524,0,0,1,.079.165c.035.125-.091.279-.226.226-.153-.059-.279-.164-.434-.214a1.038,1.038,0,0,0-.49-.034,1.473,1.473,0,0,0-.219.055,6.329,6.329,0,0,0,2.428.581,5.111,5.111,0,0,0,.513-.008,4.769,4.769,0,0,0,.851-.132,5.163,5.163,0,0,0,.648-.208,3.33,3.33,0,0,0,.305-.138l.009-.005a3.548,3.548,0,0,0,.443-.284.1.1,0,0,0-.006-.078.114.114,0,0,0-.051-.052,1.049,1.049,0,0,0-.4-.107,2.038,2.038,0,0,0-.938.4c-.292.178-.561.386-.842.579a.036.036,0,0,1-.021.006.044.044,0,0,1-.038-.065,3.333,3.333,0,0,1,.758-.76l.114-.086a2.126,2.126,0,0,1,.882-.457,2.349,2.349,0,0,1,1.14.327l.613.251c.109.045.228.083.338.133l-.257-.8q-.193-.6-.383-1.207l-.025-.079a6.1,6.1,0,0,0-.453-1.207c-.05-.09-.108-.174-.165-.259a1.753,1.753,0,0,0-.155-.264,1.25,1.25,0,0,0-.559-.307.043.043,0,0,1,.012-.084,1.107,1.107,0,0,1,.59.113l.078.037a1.369,1.369,0,0,1,.479.311,3.411,3.411,0,0,1,.6,1.2l.038.114a1.712,1.712,0,0,1,.461.119,6.987,6.987,0,0,1,3.169,2.9,15.575,15.575,0,0,1,1.671,4.495q.174.719.334,1.441a9.611,9.611,0,0,0-1.427.537.153.153,0,0,0,.154.263,8.786,8.786,0,0,1,1.339-.5c.242,1.115.458,2.236.638,3.362a63.723,63.723,0,0,1,.882,10.471.5.5,0,0,1-.065.238.135.135,0,0,0,.055-.044c.14-.221.493-.016.351.206l-.021.032a.947.947,0,0,1-.391.381,1.393,1.393,0,0,1-.6.114q-1.057.028-2.114.039c-.1-.754-.136-1.516-.269-2.266-.034-.193-.328-.111-.294.081.129.724.17,1.46.26,2.189-1.507.016-3.016.016-4.522.021-2.041.006-4.082,0-6.123,0h-.875q-3.537,0-7.074-.023l-.561,0A24.106,24.106,0,0,1,7.328,23.2a.152.152,0,0,0-.3,0A24.319,24.319,0,0,0,7.4,27.176c-.558,0-1.116,0-1.675.019l-.284.01a14.954,14.954,0,0,1-1.706-.014A4.721,4.721,0,0,1,1.9,26.728a2.579,2.579,0,0,1-.67-.506c.195-.113.392-.222.581-.345.163-.107.011-.371-.154-.263-.2.133-.417.249-.626.372a2.825,2.825,0,0,1-.37-.669,4.948,4.948,0,0,1-.256-1.2,11.7,11.7,0,0,1-.083-1.437,20.538,20.538,0,0,1,.255-3.014c.142-.956.329-1.9.527-2.849l.027-.129c.2-.929.382-1.861.606-2.783.207-.853.446-1.7.732-2.535.254.157.52.294.77.458.165.108.317-.156.154-.263-.267-.175-.551-.32-.82-.49a18.905,18.905,0,0,1,1.142-2.6A12.35,12.35,0,0,1,7.375,4.211,10.791,10.791,0,0,1,9.9,2.879a10.509,10.509,0,0,1,2.825-.594.041.041,0,0,1,.042.047v0l.038.006a.672.672,0,0,1,.1-.273,1.7,1.7,0,0,1,.555-.437L13.5,1.6a2.186,2.186,0,0,1,.729-.328.009.009,0,0,1,.009.015,4.917,4.917,0,0,1-.6.52l-.047.039c-.169.139-.4.3-.411.529-.007.274.049.558.069.831s.034.544.041.817A25.375,25.375,0,0,1,13.2,6.956l.382-.256c.6-.4,1.192-.8,1.8-1.169a2.31,2.31,0,0,1,1.225-.41,1.591,1.591,0,0,1,.4.058c-.144-.137-.283-.282-.424-.42l-.7-.68-.671-.654-.671-.654c-.208-.2-.452-.39-.43-.71A2.986,2.986,0,0,1,14.35,1.3c.013-.035.024-.071.035-.105C14.564.6,14.665-.013,14.847-.606Zm8.673,25.54a.152.152,0,0,0-.215.215l.073.073a1.894,1.894,0,0,1,.329.4l.012.023c.092.174.355.02.263-.154A2.445,2.445,0,0,0,23.521,24.934ZM17.573,24.9a3.42,3.42,0,0,0-1.31,0c-.192.037-.111.331.081.294a3,3,0,0,1,1.148,0C17.684,25.226,17.766,24.932,17.573,24.9ZM11.6,21.822a.153.153,0,0,0-.081.294l.094.024a2.024,2.024,0,0,0,.953.064c.189-.042.113-.329-.074-.3h-.008A1.869,1.869,0,0,1,11.6,21.822Zm10.6-1.98c-.141-.137-.356.078-.215.215a.953.953,0,0,0,.634.308.153.153,0,0,0,.009-.3h-.009A.642.642,0,0,1,22.2,19.842ZM4.269,19.028c.175-.088.021-.351-.154-.263l-1.053.527h0c-.175.088-.021.351.154.263l1.053-.527Zm20.811.067a.152.152,0,0,0,0,.3,1.363,1.363,0,0,1,.537.155c.176.085.331-.177.154-.263A1.719,1.719,0,0,0,25.08,19.095ZM15.24,17.623c.161-.11.009-.374-.154-.263-.222.151-.423.329-.642.485l-.06.042c-.161.11-.009.374.154.263C14.78,17.985,15,17.788,15.24,17.623Zm11.333-2.216a.153.153,0,0,0,0,.3h.037a1.2,1.2,0,0,1,.483.059l.017.008c.177.083.331-.18.154-.263A1.566,1.566,0,0,0,26.572,15.407ZM9.648,15.189l.026-.01c.183-.066.1-.361-.081-.294a3.4,3.4,0,0,0-.738.454c-.161.11-.009.374.154.263a3.429,3.429,0,0,1,.64-.414ZM21.079,14.4l.041-.022c.175-.09.02-.353-.154-.263-.138.071-.262.166-.4.241l-.041.022c-.174.09-.02.353.154.263.138-.071.262-.166.4-.241Zm-4.636-2.953-.031-.03c-.14-.137-.356.078-.216.216a6.284,6.284,0,0,0,1.184.856l.076.046a.153.153,0,0,0,.154-.263L17.5,12.2a5.935,5.935,0,0,1-1.055-.757ZM8.01,11.159c.118-.153-.139-.3-.259-.159l0,.005a3.033,3.033,0,0,1-.422.436l-.029.025c-.091.077-.256.243-.384.254-.194.017-.2.322,0,.3a1.031,1.031,0,0,0,.516-.275A3.441,3.441,0,0,0,8.01,11.159Zm16.213-1.111c.142-.133-.068-.345-.211-.22l0,0a2.12,2.12,0,0,1-.986.4.153.153,0,0,0,.081.294l.155-.038A2.081,2.081,0,0,0,24.223,10.048ZM18.187,8.125a.153.153,0,0,0-.081.294,4.691,4.691,0,0,1,.929.336c.175.086.33-.177.154-.263A5.085,5.085,0,0,0,18.187,8.125ZM21.3,1.7a.02.02,0,0,1,.024-.024c.342.128.16.576.054.844l-.019.049A6.63,6.63,0,0,1,20.706,3.8a10.4,10.4,0,0,1-.88,1.15q-.208.236-.431.458l-.056.055c-.15.148-.344.407-.576.378a.3.3,0,0,1-.208-.5c.129-.144.308-.259.453-.39s.282-.263.417-.4a9.6,9.6,0,0,0,.778-.9c.232-.3.453-.616.655-.941l.04-.065C21.053,2.4,21.407,2.024,21.3,1.7ZM9.184,4.892c-.162-.111-.315.153-.154.263a8.813,8.813,0,0,0,.878.615c.172.089.324-.166.16-.26l-.006,0A8.838,8.838,0,0,1,9.184,4.892Z" transform="translate(-0.322 2.017)"/></g><g transform="translate(9.828 0)"><path class="d" d="M10.84,19.276a3.524,3.524,0,0,1-2.112-.632,7.819,7.819,0,0,1-2.011-1.016c-.2.05-.429-.158-.579-.268A4.884,4.884,0,0,1,4.26,14.629.977.977,0,0,1,3,14.859a1.936,1.936,0,0,1-.575-2.534C1.7,10.7,1.2,6.421,2.3,4.694c.226-.259.557-.413.795-.678a4.9,4.9,0,0,1,.661-.652A7.326,7.326,0,0,1,6.617,2.342c3.39-.733,5.994.585,9.064,1.7a5.413,5.413,0,0,1-.7,1.221c.762.285.412.925-.179,1.249l-.352-.171C15,8.3,16.261,13.186,15.716,14.754a5.162,5.162,0,0,1-4.876,4.521" transform="translate(-1.492 -1.919)"/><path class="e" d="M6.6,2.136a10.571,10.571,0,0,1,4.6.1c.769.2,1.513.484,2.257.758q1.167.43,2.336.857a.154.154,0,0,1,.106.186,5.25,5.25,0,0,1-.615,1.133.642.642,0,0,1,.343.564c.008.431-.394.714-.715.923a.152.152,0,0,1-.155.014c.343,1.31.672,2.623.951,3.948l.019.089a10.326,10.326,0,0,1,.2,4.064,6.366,6.366,0,0,1-1.562,3.153,4.824,4.824,0,0,1-3.022,1.5,3.521,3.521,0,0,1-3.067-1.012.059.059,0,0,1,.071-.092l.068.038a5.244,5.244,0,0,0,1.609.621,4.484,4.484,0,0,0,1.785-.04,5.359,5.359,0,0,0,3.819-4.915,13,13,0,0,0-.485-4.13c-.328-1.412-.686-2.816-1.1-4.2a.207.207,0,0,1,0-.138C13.574,5.3,13,5.858,12.65,6.1a1.539,1.539,0,0,1-.772.294,1.915,1.915,0,0,1-.863-.192,12.463,12.463,0,0,0-1.663-.668,6.679,6.679,0,0,0-1.8-.23A3.387,3.387,0,0,0,4.694,6.522a1.479,1.479,0,0,0-.315,1.308,2.327,2.327,0,0,0,.375.7l.052.07c.134.181.243.359.106.582-.077.125-.192.225-.276.345a1.939,1.939,0,0,0-.194.341,2.011,2.011,0,0,0-.155.738c-.018.505.113.992.142,1.493,0,.062-.078.06-.1.013a3.654,3.654,0,0,1-.308-1.781,2.168,2.168,0,0,1,.255-.8,2.491,2.491,0,0,1,.28-.4l.037-.043a.165.165,0,0,0,.046-.2,1.45,1.45,0,0,0-.16-.211,1.965,1.965,0,0,1-.459-1.42,2.543,2.543,0,0,1,.767-1.348A4.113,4.113,0,0,1,7.9,4.975a7.03,7.03,0,0,1,1.871.333,7.19,7.19,0,0,1,.872.348l.063.03a4.163,4.163,0,0,0,.808.335c.657.161,1.04-.324,1.549-.631l.025-.015a1.068,1.068,0,0,1,1.282.02.156.156,0,0,1,.049.089.222.222,0,0,1,.043.086q.11.413.219.826a.186.186,0,0,1,.049-.045l.088-.057a1.067,1.067,0,0,0,.42-.41c.064-.142.007-.455-.2-.436h-.009a.173.173,0,0,1-.167-.286,4.27,4.27,0,0,0,.69-1.081l-1.175-.435L13.2,3.214l-.215-.079A17.831,17.831,0,0,0,10.8,2.447a10.493,10.493,0,0,0-4.512.059L6.2,2.525a7.769,7.769,0,0,0-1.825.586,3.277,3.277,0,0,0-.787.534c-.239.225-.425.5-.682.706l-.14.112a1.683,1.683,0,0,0-.536.62A3.529,3.529,0,0,0,2,5.969a13.444,13.444,0,0,0-.165,2.25,20.535,20.535,0,0,0,.478,3.916,1.191,1.191,0,0,1,.861-.666A1.027,1.027,0,0,1,4.208,12a.014.014,0,0,1-.022.017.93.93,0,0,0-1.257-.016,1.721,1.721,0,0,0-.436,1.245A1.5,1.5,0,0,0,2.987,14.5a.981.981,0,0,0,.553.184,1.9,1.9,0,0,0,.591-.152c.146-.047.235.119.181.236a.627.627,0,0,1-.034.065l.1.171a8.48,8.48,0,0,0,1.048,1.456,6.193,6.193,0,0,0,.774.7l.04.03c.1.075.254.229.387.234.113,0,.174-.053.253.063a.17.17,0,0,1,0,.174c-.2.325-.611.009-.823-.154l-.025-.019a5.774,5.774,0,0,1-.831-.762,4.635,4.635,0,0,1-1.03-1.766,1.214,1.214,0,0,1-1.247.047,2.107,2.107,0,0,1-.728-2.64c.009-.023.019-.046.028-.069A11.733,11.733,0,0,1,1.51,7.617,11.013,11.013,0,0,1,1.755,5.4a2.034,2.034,0,0,1,.413-.851c.229-.269.56-.422.8-.683l.053-.058a4.519,4.519,0,0,1,.635-.618,4.106,4.106,0,0,1,.862-.48A9.988,9.988,0,0,1,6.6,2.136ZM2.913,13a1.583,1.583,0,0,1,.894-.15l.031,0c.265.039.714.15.766.446a.167.167,0,0,1-.158.208.538.538,0,0,1-.329-.159,1.451,1.451,0,0,0-.343-.193,1.542,1.542,0,0,0-.832-.088C2.9,13.076,2.872,13.02,2.913,13Z" transform="translate(-1.502 -1.932)"/></g><g transform="translate(16.304 7.012)"><path class="e" d="M5.46,9.06a1.551,1.551,0,0,1-.652-.5.3.3,0,0,1-.061-.234.338.338,0,0,1,.131-.211.314.314,0,0,1,.235-.064.3.3,0,0,1,.2.132l.012.016a1.027,1.027,0,0,0,.376.316.848.848,0,0,0,.466.082,1.25,1.25,0,0,0,.759-.435l.086-.089a.134.134,0,0,1,.071-.055.152.152,0,0,1,.1,0,.155.155,0,0,1,.077.058.143.143,0,0,1,.024.094.979.979,0,0,1-.323.619,1.384,1.384,0,0,1-1.5.271Zm.923-3.68c.288.175.726.583.417,1.016-.364.382-.889-.056-1.147-.254-.24-.154-.509.242-.287.421C7.233,7.946,7.991,5.426,6.529,5.174,6.367,5.147,6.308,5.326,6.383,5.38ZM3.036,3.771c.032-.395.633-.484.692-.094a1.6,1.6,0,0,1-.167.986A.294.294,0,0,1,3,4.55,3.181,3.181,0,0,1,3.036,3.771ZM7.61,3.6a.32.32,0,0,1,.35-.142c.453.132.319.775.16,1.088a.315.315,0,0,1-.492.063.763.763,0,0,1-.043-.972A.331.331,0,0,1,7.61,3.6ZM3.555,2.044l.072-.013c.221-.038.5-.075.653.1a.259.259,0,0,1,0,.36c-.2.159-.413.1-.648.111a2.579,2.579,0,0,0-.567.1,3.851,3.851,0,0,0-1.093.566C1.926,3.3,1.879,3.24,1.9,3.2a2.259,2.259,0,0,1,.985-.919A2.437,2.437,0,0,1,3.555,2.044ZM7.2,1.867l.055.011A2.291,2.291,0,0,1,8.9,2.837c.011.083,0,.1-.01.112l0,0a.077.077,0,0,1-.05.035l-.03-.008a1.71,1.71,0,0,1-.331-.129L8.373,2.8a2.956,2.956,0,0,0-.383-.163,4.514,4.514,0,0,0-.874-.193.358.358,0,0,1-.175-.067.263.263,0,0,1-.1-.149A.268.268,0,0,1,6.873,2a.284.284,0,0,1,.138-.119A.325.325,0,0,1,7.2,1.867Z" transform="translate(-1.895 -1.86)"/></g><g transform="translate(12.305 9.679)"><path class="d" d="M-.408-.581c.269,0,.38.627.38.627a9.025,9.025,0,0,0,2.52,3.172C3.8,3.741,5.081,4.632,6.568,4.73c.671-.07.867-.684,1.7-.468.528.128,1.122.382,1.61.016a8.607,8.607,0,0,0,1.06-1.01,2.225,2.225,0,0,1,.1.783l-.028.121c-.221.975-.444,2.121-1.43,2.657a1.6,1.6,0,0,1-1.056.222,8.1,8.1,0,0,1-5.219-.8,4.161,4.161,0,0,1-1.376-.9C.877,4.426-.323,3.264-.435,1.87A7.669,7.669,0,0,1-.408-.581ZM4.918,2.171c.6-.964,1.792-.807,2.72-.368a1.819,1.819,0,0,1,1.744-.039h0a4.484,4.484,0,0,1,1.257,1.181c.087.117.121.274,0,.332a2.318,2.318,0,0,1-2.311-.157c-.391-.031-.305-.587-.757-.2a2.434,2.434,0,0,1-1.09.563,2.865,2.865,0,0,1-2.565-.229c-.1-.01-.525-.249-.375-.333A3.856,3.856,0,0,0,4.918,2.171Z" transform="translate(0.576 1.105)"/><path class="e" d="M-.544.487c.006-.051.085-.053.087,0A6.716,6.716,0,0,0,.556,3.78a7.431,7.431,0,0,0,7.386,3.2c2.118-.029,2.345-1.23,2.871-2.906.273-.224.408-.144.323.119-.653,2.023-.876,3.184-3.459,3.162C3.531,7.95-.966,4.558-.544.487Zm5.858.9a2.069,2.069,0,0,1,2.047.158l.04.009a.915.915,0,0,0,.305.028C9.2.794,10.2,2.168,10.967,3.2c.058,0,.1.047.089.1l.025.026a1.375,1.375,0,0,1-.51.666c-.782,1.042-1.367.716-2.386.287-1.048-.157-1.091,1.079-2.553.513l-.055-.018a3.641,3.641,0,0,1-1.383-.748A.017.017,0,0,1,4.211,4c.811.245,1.855,1.044,2.681.505a4.48,4.48,0,0,1,.63-.416c1.332-.446,1.8,1.315,2.967-.513a3.259,3.259,0,0,1-2.729-.646C6.7,4.2,4.634,4,3.321,3.205c-.18.026-.445-.152-.28-.321.181-.144.467-.087.689-.165C4.44,2.466,4.608,1.661,5.315,1.387Zm2.372.534A2.139,2.139,0,0,0,5.1,1.927c-.448.45-.739,1.1-1.461,1.215a3.2,3.2,0,0,0,3.979-.41c.03-.1.185-.056.2.03a3.3,3.3,0,0,0,2.411.585,2.993,2.993,0,0,0,.405-.1l-.126-.173C9.841,2.163,8.981,1.1,7.706,1.85c-.029.015-.041-.023-.045-.042l-.016.011C7.657,1.843,7.75,1.921,7.686,1.921Zm3.07,1.589a.1.1,0,0,1,.016.018l.065-.033-.006,0ZM-.447-.9V-.933c0-.368.1.1.143.187C-.113-.4.046-.062.249.273,1.06,1.733,1.185,2.365,2.819,3.2c.121.1-.006.291-.157.252a2.579,2.579,0,0,1-.635-.317C.915,2.558.5,1.387,0,.368-.146-.037-.484-.468-.447-.9Z" transform="translate(0.571 1.073)"/></g><g transform="translate(9.942 7.507)"><path class="e" d="M14.826,2.388c-.363,2.458-2.9,2.729-3.349.29a.191.191,0,0,0,.113-.215,1.556,1.556,0,0,1,.642-1.389A2.985,2.985,0,0,1,13.881.746c1.094-.026,1.071.889.945,1.642M11.081,1.319A1.839,1.839,0,0,0,10,1.526a1.3,1.3,0,0,0-.526-.6,24.178,24.178,0,0,0,2.506-.12,1.583,1.583,0,0,0-.5.575.989.989,0,0,0-.39-.061M9.567,2.649C8.615,5.927,6.238,4.5,5.979,4.078a3.272,3.272,0,0,1-.148-2.837,3.729,3.729,0,0,1,2.1-.314c1.265.017,2.163.4,1.64,1.722m6.384-1.508a1.387,1.387,0,0,0-.776.073A1.038,1.038,0,0,0,14.606.52c-.032-.04-.027-.061-.136-.055a3.54,3.54,0,0,0-2.053.111c-1.011.085-2.073.152-3.093.27C8.37.416,5.486.354,5.307,1.412c-.225-.034-.609-.211-.8.03a15.722,15.722,0,0,0-4.22.238c-.351.065-.532.762-.133.752C.379,2.37.148,2,.45,1.969c1.346-.147,2.663-.356,4.023-.38-.047.235.9.25.914.113l.006,0a3.592,3.592,0,0,0,.4,2.669,2.433,2.433,0,0,0,2.739.456A3.986,3.986,0,0,0,10.019,1.6a2.916,2.916,0,0,1,1.365-.027c-.107.3-.292,1.049-.026,1.113a1.775,1.775,0,0,0,2.54,1.8,3.126,3.126,0,0,0,1.319-3.072c.134.259,1.257-.023.733-.266" transform="translate(0.071 -0.358)"/></g></g></g></g></g></g></g></svg>