<svg xmlns="http://www.w3.org/2000/svg" width="14.644" height="14.663" viewBox="0 0 14.644 14.663"><defs><style>.a{fill:#bcbdc8;}</style></defs><g transform="translate(-175.438 -175.213)"><path class="a" d="M357.038,182.339l-5-6.274a1.046,1.046,0,0,0-1.47-.16l0,0a1.046,1.046,0,0,0-.16,1.47l0,0L354.873,183l-4.685,5.615a1.046,1.046,0,0,0,.134,1.473l0,0a1.066,1.066,0,0,0,1.474-.146l5.228-6.274A1.046,1.046,0,0,0,357.038,182.339Z" transform="translate(-167.189 -0.442)"/><path class="a" d="M177.531,175.623a1.069,1.069,0,0,0-1.684,1.318l4.517,5.615-4.685,5.6a1.046,1.046,0,0,0,.134,1.473l0,0a1.05,1.05,0,0,0,1.474-.136l5.228-6.274a1.046,1.046,0,0,0,0-1.328Z"/></g></svg>