<svg xmlns="http://www.w3.org/2000/svg" width="16.2" height="18" viewBox="0 0 16.2 18"><defs><style>.a{fill:#90919b;}</style></defs><g transform="translate(-192.5 -175)"><path class="a" d="M206,176.8h-.9v-.9a.9.9,0,1,0-1.8,0v.9h-5.4v-.9a.9.9,0,1,0-1.8,0v.9h-.9a2.7,2.7,0,0,0-2.7,2.7v10.8a2.7,2.7,0,0,0,2.7,2.7H206a2.7,2.7,0,0,0,2.7-2.7V179.5A2.7,2.7,0,0,0,206,176.8Zm-10.8,1.8h.9v.9a.9.9,0,0,0,1.8,0v-.9h5.4v.9a.9.9,0,0,0,1.8,0v-.9h.9a.9.9,0,0,1,.9.9v3.6H194.3v-3.6A.9.9,0,0,1,195.2,178.6ZM206,191.2H195.2a.9.9,0,0,1-.9-.9v-5.4h12.6v5.4A.9.9,0,0,1,206,191.2Z" transform="translate(0)"/><circle class="a" cx="0.9" cy="0.9" r="0.9" transform="translate(196.1 186.7)"/><path class="a" d="M337,402.5h-3.6a.9.9,0,0,0,0,1.8H337a.9.9,0,0,0,0-1.8Z" transform="translate(-132.8 -215.8)"/></g></svg>