<svg xmlns="http://www.w3.org/2000/svg" width="24" height="24" viewBox="0 0 24 24"><defs><style>.a,.b{fill:#151b30;}.b{opacity:0;}</style></defs><g transform="translate(0.38 0.38)"><g transform="translate(-0.38 -0.38)"><circle class="a" cx="1" cy="1" r="1" transform="translate(11 11)"/><circle class="a" cx="1" cy="1" r="1" transform="translate(15 11)"/><circle class="a" cx="1" cy="1" r="1" transform="translate(7 11)"/><path class="a" d="M18.42,4.818A9.62,9.62,0,0,0,2.759,15.4a1.02,1.02,0,0,1,.087.616L2,20.084a.956.956,0,0,0,.962,1.154h.192l4.117-.827a1.212,1.212,0,0,1,.616.087A9.62,9.62,0,0,0,18.468,4.837Zm.8,8.042A7.7,7.7,0,0,1,8.637,18.709a3.136,3.136,0,0,0-1.2-.25,3.3,3.3,0,0,0-.539.048l-2.713.548.548-2.713a2.973,2.973,0,0,0-.2-1.741A7.7,7.7,0,1,1,19.218,12.86Z" transform="translate(0.381 0.381)"/><rect class="b" width="24" height="24" transform="translate(0 0)"/></g></g></svg>