<svg xmlns="http://www.w3.org/2000/svg" width="44" height="44" viewBox="0 0 44 44"><defs><style>.a,.b{fill:#bbbbbf;}.a{opacity:0;}</style></defs><g transform="translate(-0.144 0.068)"><g transform="translate(0 0)"><rect class="a" width="44" height="44" transform="translate(0.144 -0.068)"/><path class="b" d="M32.4,13.421,22.584,2.6A1.8,1.8,0,0,0,21.249,2H8.619A4.565,4.565,0,0,0,4,6.511V33.575a4.565,4.565,0,0,0,4.619,4.511H28.25a4.565,4.565,0,0,0,4.619-4.511V14.63a1.8,1.8,0,0,0-.469-1.209ZM22.043,7.413l4.944,5.413H23.378a1.425,1.425,0,0,1-1.335-1.534ZM28.25,34.477H8.619a.956.956,0,0,1-1.01-.9V6.511a.956.956,0,0,1,1.01-.9h9.815v5.684a5.034,5.034,0,0,0,4.89,5.142H29.26V33.575a.956.956,0,0,1-1.01.9Z" transform="translate(3.514 1.906)"/><path class="b" d="M18.021,14.609h-1.8V12.8a1.8,1.8,0,0,0-3.609,0v1.8H10.8a1.8,1.8,0,1,0,0,3.609h1.8v1.8a1.8,1.8,0,1,0,3.609,0v-1.8h1.8a1.8,1.8,0,0,0,0-3.609Z" transform="translate(7.536 9.144)"/></g></g></svg>