<svg xmlns="http://www.w3.org/2000/svg" width="20" height="20" viewBox="0 0 20 20"><defs><style>.a,.b{fill:#405cd2;}.a{fill-rule:evenodd;opacity:0.25;}</style></defs><g transform="translate(-2 -2)"><path class="a" d="M10,3.5A1.5,1.5,0,0,1,11.5,2h1A1.5,1.5,0,0,1,14,3.5v.364a.522.522,0,0,0,.373.493,7.95,7.95,0,0,1,1.353.561.522.522,0,0,0,.613-.085l.258-.258a1.5,1.5,0,0,1,2.121,0l.707.707a1.5,1.5,0,0,1,0,2.121l-.258.258a.522.522,0,0,0-.085.613,7.953,7.953,0,0,1,.561,1.353.522.522,0,0,0,.493.373H20.5A1.5,1.5,0,0,1,22,11.5v1A1.5,1.5,0,0,1,20.5,14h-.364a.522.522,0,0,0-.493.373,7.953,7.953,0,0,1-.561,1.353.522.522,0,0,0,.085.613l.258.258a1.5,1.5,0,0,1,0,2.121l-.707.707a1.5,1.5,0,0,1-2.121,0l-.258-.258a.522.522,0,0,0-.613-.085,7.953,7.953,0,0,1-1.353.561.522.522,0,0,0-.373.493V20.5A1.5,1.5,0,0,1,12.5,22h-1A1.5,1.5,0,0,1,10,20.5v-.364a.522.522,0,0,0-.373-.493,7.945,7.945,0,0,1-1.353-.561.522.522,0,0,0-.613.085l-.258.258a1.5,1.5,0,0,1-2.121,0l-.707-.707a1.5,1.5,0,0,1,0-2.121l.258-.258a.522.522,0,0,0,.085-.613,7.95,7.95,0,0,1-.561-1.353A.522.522,0,0,0,3.864,14H3.5A1.5,1.5,0,0,1,2,12.5v-1A1.5,1.5,0,0,1,3.5,10h.364a.522.522,0,0,0,.493-.373,7.949,7.949,0,0,1,.561-1.353.522.522,0,0,0-.085-.613L4.575,7.4a1.5,1.5,0,0,1,0-2.121l.707-.707a1.5,1.5,0,0,1,2.121,0l.258.258a.522.522,0,0,0,.613.085,7.949,7.949,0,0,1,1.353-.561A.522.522,0,0,0,10,3.864Z"/><path class="b" d="M15,12a3,3,0,1,1-3-3A3,3,0,0,1,15,12Z"/></g></svg>